<svg width="700" height="400" xmlns="http://www.w3.org/2000/svg" xmlns:xlink="http://www.w3.org/1999/xlink"><defs><linearGradient x1="116.72%" y1="111.971%" x2="7.126%" y2="3.006%" id="a"><stop stop-color="#2A3A60" offset="0%"/><stop stop-color="#40547E" offset="100%"/></linearGradient><linearGradient x1="86.704%" y1="100%" x2="29.916%" y2="13.474%" id="b"><stop stop-color="#354E7F" offset="0%"/><stop stop-color="#506691" offset="100%"/></linearGradient><linearGradient x1="45.781%" y1="25.447%" x2="49.135%" y2="96.231%" id="c"><stop stop-color="#EDF5FC" offset="0%"/><stop stop-color="#EDF5FC" stop-opacity=".059" offset="100%"/></linearGradient><filter x="-18.6%" y="-25.7%" width="139.3%" height="152.4%" filterUnits="objectBoundingBox" id="d"><feOffset in="SourceAlpha" result="shadowOffsetOuter1"/><feGaussianBlur stdDeviation="7" in="shadowOffsetOuter1" result="shadowBlurOuter1"/><feColorMatrix values="0 0 0 0 0.119494011 0 0 0 0 0.189281892 0 0 0 0 0.349383503 0 0 0 1 0" in="shadowBlurOuter1" result="shadowMatrixOuter1"/><feMerge><feMergeNode in="shadowMatrixOuter1"/><feMergeNode in="SourceGraphic"/></feMerge></filter><linearGradient x1="88.173%" y1="100%" x2="22.833%" y2="19.909%" id="e"><stop stop-color="#40537B" offset="0%"/><stop stop-color="#40537B" offset="100%"/></linearGradient><path d="M35 64.358h87a3 3 0 0 1 3 3v30a3 3 0 0 1-3 3H35a3 3 0 0 1-3-3v-30a3 3 0 0 1 3-3z" id="g"/><filter x="-5.9%" y="-9.7%" width="111.8%" height="130.6%" filterUnits="objectBoundingBox" id="f"><feOffset dy="2" in="SourceAlpha" result="shadowOffsetOuter1"/><feGaussianBlur stdDeviation="1.5" in="shadowOffsetOuter1" result="shadowBlurOuter1"/><feColorMatrix values="0 0 0 0 0.115725487 0 0 0 0 0.121314629 0 0 0 0 0.197385204 0 0 0 0.219769022 0" in="shadowBlurOuter1"/></filter><path d="M35 24h41a3 3 0 0 1 3 3v30a3 3 0 0 1-3 3H35a3 3 0 0 1-3-3V27a3 3 0 0 1 3-3z" id="i"/><filter x="-11.7%" y="-9.7%" width="123.4%" height="130.6%" filterUnits="objectBoundingBox" id="h"><feOffset dy="2" in="SourceAlpha" result="shadowOffsetOuter1"/><feGaussianBlur stdDeviation="1.5" in="shadowOffsetOuter1" result="shadowBlurOuter1"/><feColorMatrix values="0 0 0 0 0.115725487 0 0 0 0 0.121314629 0 0 0 0 0.197385204 0 0 0 0.219769022 0" in="shadowBlurOuter1"/></filter><path d="M90 24h52a3 3 0 0 1 3 3v30a3 3 0 0 1-3 3H90a3 3 0 0 1-3-3V27a3 3 0 0 1 3-3z" id="k"/><filter x="-9.5%" y="-9.7%" width="119%" height="130.6%" filterUnits="objectBoundingBox" id="j"><feOffset dy="2" in="SourceAlpha" result="shadowOffsetOuter1"/><feGaussianBlur stdDeviation="1.5" in="shadowOffsetOuter1" result="shadowBlurOuter1"/><feColorMatrix values="0 0 0 0 0.115725487 0 0 0 0 0.121314629 0 0 0 0 0.197385204 0 0 0 0.219769022 0" in="shadowBlurOuter1"/></filter><path d="M89.431 44.413c1.307-3.186 3.605-3.186 6.894 0 4.934 4.78 7.491 4.005 10.555 0 3.063-4.005 4.6-10.063 9.066-5.913 3.213 2.985 4.646 6.173 6.636 7.727.775.606 1.636.964 2.72.964 3.862 0 6.792-4.429 9.563-8.691 1.847-2.842 4.34-1.645 7.476 3.59" id="m"/><filter x="-14.5%" y="-51.6%" width="129%" height="240.3%" filterUnits="objectBoundingBox" id="l"><feMorphology radius=".5" operator="dilate" in="SourceAlpha" result="shadowSpreadOuter1"/><feOffset dy="2" in="shadowSpreadOuter1" result="shadowOffsetOuter1"/><feMorphology radius="1" in="SourceAlpha" result="shadowInner"/><feOffset dy="2" in="shadowInner" result="shadowInner"/><feComposite in="shadowOffsetOuter1" in2="shadowInner" operator="out" result="shadowOffsetOuter1"/><feGaussianBlur stdDeviation="2" in="shadowOffsetOuter1" result="shadowBlurOuter1"/><feColorMatrix values="0 0 0 0 0 0 0 0 0 0 0 0 0 0 0 0 0 0 0.115658967 0" in="shadowBlurOuter1"/></filter><linearGradient x1="100%" y1="0%" x2="0%" y2="0%" id="n"><stop stop-color="#FFF" offset="0%"/><stop stop-color="#FFF" offset="100%"/></linearGradient><linearGradient x1="5.903%" y1="100%" x2="100%" y2="100%" id="o"><stop stop-color="#FFF" offset="0%"/><stop stop-color="#FFF" offset="100%"/></linearGradient><linearGradient x1="13.304%" y1="118.46%" x2="77.137%" y2="8.298%" id="p"><stop stop-color="#FF9761" offset="0%"/><stop stop-color="#FFA764" offset="100%"/></linearGradient><filter x="-18%" y="-12.6%" width="136%" height="125.2%" filterUnits="objectBoundingBox" id="q"><feOffset in="SourceAlpha" result="shadowOffsetOuter1"/><feGaussianBlur stdDeviation="5" in="shadowOffsetOuter1" result="shadowBlurOuter1"/><feColorMatrix values="0 0 0 0 0 0 0 0 0 0 0 0 0 0 0 0 0 0 0.5 0" in="shadowBlurOuter1" result="shadowMatrixOuter1"/><feMerge><feMergeNode in="shadowMatrixOuter1"/><feMergeNode in="SourceGraphic"/></feMerge></filter><linearGradient x1="95.83%" y1=".821%" x2="12.701%" y2="91.649%" id="r"><stop stop-color="#7F9ECA" offset="0%"/><stop stop-color="#647DA2" offset="100%"/></linearGradient><linearGradient x1="48.535%" y1="60.459%" x2="48.535%" y2="50%" id="s"><stop stop-color="#2A3A60" offset="0%"/><stop stop-color="#6E86B9" offset="100%"/></linearGradient><filter x="-17.9%" y="-16.4%" width="135.8%" height="132.9%" filterUnits="objectBoundingBox" id="t"><feOffset dy="4" in="SourceAlpha" result="shadowOffsetOuter1"/><feGaussianBlur stdDeviation="7.5" in="shadowOffsetOuter1" result="shadowBlurOuter1"/><feColorMatrix values="0 0 0 0 0.0373830754 0 0 0 0 0.104371752 0 0 0 0 0.258051658 0 0 0 1 0" in="shadowBlurOuter1" result="shadowMatrixOuter1"/><feMerge><feMergeNode in="shadowMatrixOuter1"/><feMergeNode in="SourceGraphic"/></feMerge></filter><linearGradient x1="95.83%" y1=".821%" x2="12.701%" y2="91.649%" id="u"><stop stop-color="#9DC8FF" offset="0%"/><stop stop-color="#C3E0FF" stop-opacity=".218" offset="100%"/></linearGradient><path id="v" d="M.316 0h13.326v22.456H.316z"/><path id="x" d="M.331 0h13.96v22.456H.331z"/><path id="z" d="M.331 0h13.96v22.456H.331z"/><path id="B" d="M.331 0h13.96v22.456H.331z"/><path id="D" d="M.331 0h13.96v22.456H.331z"/><path d="M4.837.346v5.638C4.703 9.738 2.364 7.996.801 12.008.136 13.544.289 19.63.289 22.87c0 3.24.484 4.424 3.383 4.424h5.611c1.694 0 3.05-1.132 3.05-4.56s.473-8.182-.245-10.727-3.76-2.554-4.008-6.024V.346H4.837z" id="F"/><path d="M4.837.346v5.638C4.703 9.738 2.364 7.996.801 12.008.136 13.544.289 19.63.289 22.87c0 3.24.484 4.424 3.383 4.424h5.611c1.694 0 3.05-1.132 3.05-4.56s.473-8.182-.245-10.727-3.76-2.554-4.008-6.024V.346H4.837z" id="H"/><path d="M4.837.346v5.638C4.703 9.738 2.364 7.996.801 12.008.136 13.544.289 19.63.289 22.87c0 3.24.484 4.424 3.383 4.424h5.611c1.694 0 3.05-1.132 3.05-4.56s.473-8.182-.245-10.727-3.76-2.554-4.008-6.024V.346H4.837z" id="J"/><path d="M4.837.346v5.638C4.703 9.738 2.364 7.996.801 12.008.136 13.544.289 19.63.289 22.87c0 3.24.484 4.424 3.383 4.424h5.611c1.694 0 3.05-1.132 3.05-4.56s.473-8.182-.245-10.727-3.76-2.554-4.008-6.024V.346H4.837z" id="L"/><path d="M4.837.346v5.638C4.703 9.738 2.364 7.996.801 12.008.136 13.544.289 19.63.289 22.87c0 3.24.484 4.424 3.383 4.424h5.611c1.694 0 3.05-1.132 3.05-4.56s.473-8.182-.245-10.727-3.76-2.554-4.008-6.024V.346H4.837z" id="N"/><path d="M4.837.346v5.638C4.703 9.738 2.364 7.996.801 12.008.136 13.544.289 19.63.289 22.87c0 3.24.484 4.424 3.383 4.424h5.611c1.694 0 3.05-1.132 3.05-4.56s.473-8.182-.245-10.727-3.76-2.554-4.008-6.024V.346H4.837z" id="P"/><path id="R" d="M0 0h10.559v17.833H0z"/><path id="T" d="M0 0h10.559v17.833H0z"/><path id="V" d="M0 0h10.559v17.833H0z"/><path id="X" d="M0 0h10.559v17.833H0z"/><path id="Z" d="M0 0h10.559v17.833H0z"/><path id="ab" d="M0 0h10.559v17.833H0z"/><path id="ad" d="M.24 0h10.154v17.172H.24z"/><path id="af" d="M.256 0h10.787v17.172H.256z"/><path id="ah" d="M.256 0h10.787v17.172H.256z"/><path id="aj" d="M.256 0h10.787v17.172H.256z"/><path id="al" d="M.256 0h10.787v17.172H.256z"/><path d="M3.628.256v4.167C3.528 7.198 1.773 5.91.601 8.875.102 10.01.216 14.51.216 16.905c0 2.395.364 3.27 2.538 3.27h4.208c1.27 0 2.288-.837 2.288-3.37 0-2.535.355-6.049-.184-7.93-.538-1.88-2.82-1.887-3.006-4.452V.256H3.628z" id="an"/><path d="M3.628.256v4.167C3.528 7.198 1.773 5.91.601 8.875.102 10.01.216 14.51.216 16.905c0 2.395.364 3.27 2.538 3.27h4.208c1.27 0 2.288-.837 2.288-3.37 0-2.535.355-6.049-.184-7.93-.538-1.88-2.82-1.887-3.006-4.452V.256H3.628z" id="ap"/><path d="M3.628.256v4.167C3.528 7.198 1.773 5.91.601 8.875.102 10.01.216 14.51.216 16.905c0 2.395.364 3.27 2.538 3.27h4.208c1.27 0 2.288-.837 2.288-3.37 0-2.535.355-6.049-.184-7.93-.538-1.88-2.82-1.887-3.006-4.452V.256H3.628z" id="ar"/><path d="M3.628.256v4.167C3.528 7.198 1.773 5.91.601 8.875.102 10.01.216 14.51.216 16.905c0 2.395.364 3.27 2.538 3.27h4.208c1.27 0 2.288-.837 2.288-3.37 0-2.535.355-6.049-.184-7.93-.538-1.88-2.82-1.887-3.006-4.452V.256H3.628z" id="at"/><path d="M3.628.256v4.167C3.528 7.198 1.773 5.91.601 8.875.102 10.01.216 14.51.216 16.905c0 2.395.364 3.27 2.538 3.27h4.208c1.27 0 2.288-.837 2.288-3.37 0-2.535.355-6.049-.184-7.93-.538-1.88-2.82-1.887-3.006-4.452V.256H3.628z" id="av"/><path d="M3.628.256v4.167C3.528 7.198 1.773 5.91.601 8.875.102 10.01.216 14.51.216 16.905c0 2.395.364 3.27 2.538 3.27h4.208c1.27 0 2.288-.837 2.288-3.37 0-2.535.355-6.049-.184-7.93-.538-1.88-2.82-1.887-3.006-4.452V.256H3.628z" id="ax"/><path id="az" d="M0 0h9.24v15.19H0z"/><path id="aB" d="M0 0h9.24v15.19H0z"/><path id="aD" d="M0 0h9.24v15.19H0z"/><path id="aF" d="M0 0h9.24v15.19H0z"/><path id="aH" d="M0 0h9.24v15.19H0z"/><linearGradient x1="50%" y1="2.667%" x2="50%" y2="100%" id="aJ"><stop stop-color="#FF6F07" offset="0%"/><stop stop-color="#FD895F" offset="100%"/></linearGradient><linearGradient x1="50%" y1="6.476%" x2="50%" y2="100%" id="aK"><stop stop-color="#6DBDFF" offset="0%"/><stop stop-color="#6DBDFF" offset="100%"/></linearGradient><linearGradient x1="75.804%" y1="50%" x2="0%" y2="50%" id="aL"><stop stop-color="#2EB186" offset="0%"/><stop stop-color="#8FEFD0" offset="100%"/></linearGradient><linearGradient x1="58.485%" y1="89.77%" x2="60.785%" y2="-79.335%" id="aM"><stop stop-color="#52D9AC" offset="0%"/><stop stop-color="#CFFFEE" offset="100%"/></linearGradient><linearGradient x1="65.451%" y1="100%" x2="65.451%" y2="0%" id="aN"><stop stop-color="#0CAE79" offset="0%"/><stop stop-color="#9DFCDC" offset="100%"/></linearGradient><linearGradient x1="100%" y1="0%" x2="-11.26%" y2="50%" id="aO"><stop stop-color="#ABE3FF" offset="0%"/><stop stop-color="#73C3FF" offset="100%"/></linearGradient><linearGradient x1="50%" y1="0%" x2="50%" y2="92.636%" id="aP"><stop stop-color="#4DDAAC" offset="0%"/><stop stop-color="#86FFD4" offset="100%"/></linearGradient><linearGradient x1="50%" y1="0%" x2="50%" y2="100%" id="aQ"><stop stop-color="#5FE6BA" offset="0%"/><stop stop-color="#7EFACF" offset="100%"/></linearGradient><linearGradient x1="50%" y1="0%" x2="37.688%" y2="83.351%" id="aR"><stop stop-color="#2BCA96" offset="0%"/><stop stop-color="#7EFACE" offset="100%"/></linearGradient><linearGradient x1="11.112%" y1="15.99%" x2="119.534%" y2="70.324%" id="aS"><stop stop-color="#66EABF" offset="0%"/><stop stop-color="#75F4C9" offset="100%"/></linearGradient><linearGradient x1="84.558%" y1="7.65%" x2="33.754%" y2="52.399%" id="aT"><stop stop-color="#15DD9C" offset="0%"/><stop stop-color="#78F6CB" offset="100%"/></linearGradient><linearGradient x1="50%" y1="5.107%" x2="50%" y2="100%" id="aU"><stop stop-color="#22E2A4" offset="0%"/><stop stop-color="#33E6AC" offset="18.254%"/><stop stop-color="#7EFACF" offset="100%"/></linearGradient><linearGradient x1="48.535%" y1="71.713%" x2="48.535%" y2="68.779%" id="aV"><stop stop-color="#2A3A60" offset="0%"/><stop stop-color="#6E86B9" offset="100%"/></linearGradient><path id="aW" d="M0 0h7.897v7.86H0z"/><path id="aY" d="M0 0h7.924v8.491H0z"/><path id="ba" d="M0 0h9.056v9.057H0z"/></defs><g fill="none" fill-rule="evenodd"><path stroke="#425988" fill="url(#a)" fill-rule="nonzero" d="M.5.5h699v399H.5z"/><path fill="url(#b)" fill-rule="nonzero" d="M0 0h233.905v400H0z"/><path d="M698.822 45.424c-42.562-12.425-76.365-15.057-101.408-7.898-25.043 7.159-46.768 20.52-65.174 40.084-14.326 23.684-42.81 30.852-85.452 21.505-63.962-14.021-102.238 13.844-120.676 58.896-18.438 45.051-30.7 56.216-101.33 55.423-70.629-.792-77.459 49.37-120.197 90.041S0 313.844 0 313.844V371l698.822-1.828V45.424z" fill="url(#c)" fill-rule="nonzero" opacity=".059"/><g transform="translate(243 26)"><g filter="url(#d)" transform="translate(277 116)"><rect fill="url(#e)" y=".66" width="131.328" height="103.694" rx="4"/><path d="M131.328 17.833H0V14C0 6.268 6.268 0 14 0h103.328c7.732 0 14 6.268 14 14v3.833z" fill="#6E86B9"/><g opacity=".592" fill-rule="nonzero"><use fill="#000" filter="url(#f)" xlink:href="#g"/><use fill="#88A3CE" xlink:href="#g"/></g><rect fill="#FFF" fill-rule="nonzero" x="73" y="74" width="32" height="2" rx="1"/><rect fill="#FFF" fill-rule="nonzero" x="73" y="82" width="38" height="2" rx="1"/><rect fill="#FFF" fill-rule="nonzero" x="73" y="89" width="38" height="2" rx="1"/><g opacity=".592" fill-rule="nonzero"><use fill="#000" filter="url(#h)" xlink:href="#i"/><use fill="#88A3CE" xlink:href="#i"/></g><g opacity=".517" fill-rule="nonzero"><use fill="#000" filter="url(#j)" xlink:href="#k"/><use fill="#88A3CE" xlink:href="#k"/></g><path d="M0 18h25v87H14c-7.732 0-14-6.268-14-14V18z" fill="#304168"/><path d="M6.484 29.721h13.974a.66.66 0 1 1 0 1.32l-9.885.001h-4.09a.66.66 0 0 1 0-1.32z" fill="#FFF" fill-rule="nonzero"/><rect fill="#FFF" fill-rule="nonzero" x="5.823" y="33.023" width="15.295" height="1.321" rx=".66"/><rect fill="#FFF" fill-rule="nonzero" x="5.823" y="36.326" width="12.746" height="1.321" rx=".66"/><rect fill="#FFF" fill-rule="nonzero" x="5.823" y="39.628" width="9.347" height="1.321" rx=".66"/><g fill-rule="nonzero"><use fill="#000" filter="url(#l)" xlink:href="#m"/><use stroke="#35F9FF" xlink:href="#m"/></g><circle stroke="#FFF" stroke-width="2" cx="51.5" cy="82.724" r="11.5"/><path d="M51.5 94.224c6.351 0 11.5-5.15 11.5-11.5 0-6.352-5.149-11.5-11.5-11.5S40 76.372 40 82.724" stroke="#35F9FF" stroke-width="2" stroke-linecap="round"/><rect fill="url(#n)" fill-rule="nonzero" opacity=".991" x="37" y="43" width="15.295" height="1.5" rx=".75"/><rect fill="url(#n)" fill-rule="nonzero" x="52" y="29.642" width="15.295" height="1.5" rx=".75"/><rect fill="url(#n)" fill-rule="nonzero" x="52" y="33.642" width="15.295" height="1.5" rx=".75"/><circle fill="#FFF" fill-rule="nonzero" cx="42.5" cy="32.5" r="5.5"/><rect fill="url(#o)" fill-rule="nonzero" x="37" y="48" width="19.835" height="1.5" rx=".75"/><path d="M37.75 53h27.178a.75.75 0 0 1 0 1.5H37.75a.75.75 0 1 1 0-1.5z" fill="url(#o)" fill-rule="nonzero"/></g><path d="M25.168 30.199c1.205-.482 2.169-1.205 3.012-2.048a10.265 10.265 0 0 0 2.049-3.012 9.818 9.818 0 0 0 .723-3.735c0-1.325-.242-2.53-.723-3.735-.482-1.205-1.205-2.169-2.049-3.012a10.265 10.265 0 0 0-3.012-2.048 9.814 9.814 0 0 0-3.734-.723c-1.326 0-2.53.24-3.735.723-1.205.482-2.169 1.205-3.012 2.048a10.264 10.264 0 0 0-2.048 3.012 9.814 9.814 0 0 0-.723 3.735c0 1.325.24 2.53.723 3.735.482 1.205 1.204 2.168 2.048 3.012a10.264 10.264 0 0 0 3.012 2.048c1.084.482 2.41.723 3.735.723 1.325 0 2.53-.241 3.734-.723zM41.62 28.13c-.12.482-.24.965-.481 1.568-.241.482-.482.964-.723 1.326-.24.362-.602.724-.963.844-.362.241-.603.241-.964.241-.241 0-.602-.12-.843-.12-.241-.12-.602-.12-1.084-.241a2.471 2.471 0 0 0-1.325 0c-.482 0-.964.12-1.325.241-.482.12-.843.362-1.205.723-.722.724-1.084 1.568-1.204 2.533-.12.965 0 1.809.361 2.653.241.603.241 1.206-.12 1.808-.12.242-.482.483-.843.724-.362.241-.844.483-1.205.724-.482.24-.964.361-1.445.482-.482 0-.964.12-1.325.12-.241 0-.482-.12-.723-.361-.24-.241-.361-.482-.482-.603-.361-.965-.843-1.688-1.686-2.412a4.205 4.205 0 0 0-2.65-.965c-.964 0-1.927.362-2.65.965-.843.603-1.325 1.447-1.686 2.291-.12.362-.361.603-.602.724-.482.24-.843.362-1.205.362-.361 0-.843-.121-1.325-.242a8.367 8.367 0 0 1-1.566-.602c-.482-.242-.963-.483-1.325-.724-.361-.241-.722-.603-.963-.844-.12-.241-.241-.482-.241-.724 0-.24.12-.723.361-1.206.362-.723.482-1.447.362-2.29a4.857 4.857 0 0 0-1.084-2.413c-.362-.482-.964-.723-1.446-.844-.602-.12-1.204-.24-1.686-.12-.602 0-1.205.12-1.927.361-.362.121-.843.121-1.205-.12-.361-.12-.602-.362-.843-.844-.24-.483-.482-.844-.723-1.447-.24-.483-.361-1.086-.481-1.568-.362-.482-.362-.965-.241-1.326.12-.603.361-1.086.843-1.206.843-.362 1.686-.965 2.409-1.689.723-.844 1.084-1.688 1.084-2.652 0-.965-.361-1.93-1.084-2.653-.723-.724-1.566-1.327-2.41-1.689-.24-.12-.481-.24-.601-.603-.241-.482-.362-.844-.362-1.206 0-.361.12-.844.12-1.326.121-.482.242-.965.482-1.326.241-.483.362-.844.603-1.206l.843-.844c.24-.121.482-.242.723-.121.24 0 .481.12.722.12.843.362 1.807.483 2.77.362.964-.12 1.807-.603 2.53-1.206.361-.361.602-.844.723-1.326.12-.482.24-.965.361-1.568V5.34c0-.362-.12-.724-.12-.844-.12-.241-.12-.362-.12-.603s0-.482.12-.603c.12-.362.481-.724.963-1.085.361-.362.843-.603 1.325-.845.482-.24 1.084-.361 1.566-.482.482 0 .843-.12 1.205-.12.36 0 .722.12.843.361.24.241.361.483.481.724.362.844.844 1.447 1.566 2.05.723.603 1.566.844 2.65.844 1.084 0 1.927-.241 2.77-.844.844-.603 1.325-1.327 1.687-2.17.12-.242.24-.483.602-.724a.92.92 0 0 1 .602-.241c.362 0 .843.12 1.325.12.482.12.964.241 1.446.482.481.242.843.483 1.325.845.361.361.722.723.963 1.085.12.241.241.482.12.723-.12.242-.12.483-.12.603-.361.845-.482 1.689-.361 2.653.12.965.602 1.81 1.325 2.412.722.724 1.566 1.085 2.65 1.206.843.12 1.806 0 2.65-.482.24-.121.481-.242.843-.121.361 0 .602.12.843.362.482.362.843 1.085 1.204 1.93.362.843.602 1.687.723 2.531.12.483 0 .845-.24 1.206-.242.242-.483.483-.724.603-.963.362-1.686.844-2.288 1.689-.602.844-.964 1.688-.964 2.773 0 .965.241 1.93.844 2.653.602.724 1.204 1.327 2.167 1.568.241.12.362.24.482.361.241.121.482.483.602.845.121.361 0 .723 0 1.326z" transform="translate(75 123)" fill="url(#p)"/><g filter="url(#q)" transform="translate(85.092 144.02)"><path fill="url(#r)" d="M12.539 5.284h85.792v146.624H12.539z"/><path fill="#40537B" d="M16.498 8.586h77.213v139.359H16.498z"/><path fill="url(#s)" d="M16.498 40.949h77.213v3.963H16.498zM16.498 77.935h77.213v3.963H16.498zM16.498 112.94h77.213v3.963H16.498z"/><path d="M8.089 0h93.13c.617 1.266.54 2.337-.232 3.214-.772.877-1.725 1.567-2.859 2.07H11.567c-1.335-.286-2.332-.976-2.992-2.07C7.915 2.119 7.753 1.048 8.09 0z" fill="#61759E"/><path fill="#2A3A60" d="M12.34 151.908h86.461l3.49 3.963H9.238z"/><rect fill="#61759E" y="154.55" width="110.21" height="3.963" rx="1.981"/></g><g filter="url(#t)" transform="translate(106.03 97.126)"><path fill="url(#u)" opacity=".913" d="M66.728 7.763h119.95V212.2H66.728z"/><path fill="#40537B" d="M72.47 12.292h107.827v194.732H72.47z"/><g transform="translate(82.673 34.344)"><mask id="w" fill="#fff"><use xlink:href="#v"/></mask><path d="M11.722 13.192v-.195h-.004C11.625 10.84 9.966 9.032 7.72 8.44c.108-.192.169-.406.169-.633 0-.596-.42-1.11-1.02-1.335V4.378h.667c.335 0 .608-.244.608-.546 0-.301-.273-.546-.608-.546h-2.58a.665.665 0 0 0-.126.012c-.097.019-.966.188-1.51.438-.552.255-1.186.84-1.256.905a.508.508 0 0 0 .016.772c.118.102.27.153.422.153.16 0 .318-.056.438-.168.142-.132.619-.544.936-.69.312-.144.885-.277 1.146-.33h.632v2.044c-.68.192-1.174.74-1.174 1.386 0 .217.056.422.156.607C2.314 8.985.593 10.85.535 13.07v.003a4.328 4.328 0 0 0-.002.115h.002v8.133c0 .626.567 1.135 1.264 1.135h8.664c.696 0 1.264-.51 1.264-1.135v-8.129h-.005z" fill="#68EBC0" mask="url(#w)"/></g><path fill="#FFF" fill-rule="nonzero" d="M84.653 48.214h7.919v5.284h-7.92z"/><g transform="translate(100.491 34.344)"><mask id="y" fill="#fff"><use xlink:href="#x"/></mask><path d="M12.28 13.192v-.195h-.004c-.098-2.157-1.836-3.965-4.188-4.556.113-.192.177-.406.177-.633 0-.596-.44-1.11-1.068-1.335V4.378h.698c.351 0 .636-.244.636-.546 0-.301-.285-.546-.636-.546H5.192a.73.73 0 0 0-.132.012c-.102.019-1.012.188-1.581.438-.579.255-1.243.84-1.317.905a.493.493 0 0 0 .017.772.694.694 0 0 0 .442.153.691.691 0 0 0 .459-.168c.149-.132.648-.544.98-.69.327-.144.928-.277 1.2-.33h.663v2.044c-.713.192-1.23.74-1.23 1.386 0 .217.06.422.163.607C2.424 8.985.622 10.85.56 13.07v.003a4.131 4.131 0 0 0-.002.115H.56v8.133c0 .626.594 1.135 1.324 1.135h9.077c.73 0 1.324-.51 1.324-1.135v-8.129h-.005z" fill="#68EBC0" mask="url(#y)"/></g><path fill="#FFF" fill-rule="nonzero" d="M102.471 48.214h8.58v5.284h-8.58z"/><g transform="translate(118.97 34.344)"><mask id="A" fill="#fff"><use xlink:href="#z"/></mask><path d="M12.28 13.192v-.195h-.004c-.098-2.157-1.836-3.965-4.188-4.556.113-.192.177-.406.177-.633 0-.596-.44-1.11-1.068-1.335V4.378h.698c.351 0 .636-.244.636-.546 0-.301-.285-.546-.636-.546H5.192a.73.73 0 0 0-.132.012c-.102.019-1.012.188-1.581.438-.579.255-1.243.84-1.317.905a.493.493 0 0 0 .017.772.694.694 0 0 0 .442.153.691.691 0 0 0 .459-.168c.149-.132.648-.544.98-.69.327-.144.928-.277 1.2-.33h.663v2.044c-.713.192-1.23.74-1.23 1.386 0 .217.06.422.163.607C2.424 8.985.622 10.85.56 13.07v.003a4.131 4.131 0 0 0-.002.115H.56v8.133c0 .626.594 1.135 1.324 1.135h9.077c.73 0 1.324-.51 1.324-1.135v-8.129h-.005z" fill="#68EBC0" mask="url(#A)"/></g><path fill="#FFF" fill-rule="nonzero" d="M120.95 48.214h8.578v5.284h-8.579z"/><g transform="translate(137.448 34.344)"><mask id="C" fill="#fff"><use xlink:href="#B"/></mask><path d="M12.28 13.192v-.195h-.004c-.098-2.157-1.836-3.965-4.188-4.556.113-.192.177-.406.177-.633 0-.596-.44-1.11-1.068-1.335V4.378h.698c.351 0 .636-.244.636-.546 0-.301-.285-.546-.636-.546H5.192a.73.73 0 0 0-.132.012c-.102.019-1.012.188-1.581.438-.579.255-1.243.84-1.317.905a.493.493 0 0 0 .017.772.694.694 0 0 0 .442.153.691.691 0 0 0 .459-.168c.149-.132.648-.544.98-.69.327-.144.928-.277 1.2-.33h.663v2.044c-.713.192-1.23.74-1.23 1.386 0 .217.06.422.163.607C2.424 8.985.622 10.85.56 13.07v.003a4.131 4.131 0 0 0-.002.115H.56v8.133c0 .626.594 1.135 1.324 1.135h9.077c.73 0 1.324-.51 1.324-1.135v-8.129h-.005z" fill="#68EBC0" mask="url(#C)"/></g><path fill="#FFF" fill-rule="nonzero" d="M139.428 48.214h8.579v5.284h-8.58z"/><g transform="translate(155.926 34.344)"><mask id="E" fill="#fff"><use xlink:href="#D"/></mask><path d="M12.28 13.192v-.195h-.004c-.098-2.157-1.836-3.965-4.188-4.556.113-.192.177-.406.177-.633 0-.596-.44-1.11-1.068-1.335V4.378h.698c.351 0 .636-.244.636-.546 0-.301-.285-.546-.636-.546H5.192a.73.73 0 0 0-.132.012c-.102.019-1.012.188-1.581.438-.579.255-1.243.84-1.317.905a.493.493 0 0 0 .017.772.694.694 0 0 0 .442.153.691.691 0 0 0 .459-.168c.149-.132.648-.544.98-.69.327-.144.928-.277 1.2-.33h.663v2.044c-.713.192-1.23.74-1.23 1.386 0 .217.06.422.163.607C2.424 8.985.622 10.85.56 13.07v.003a4.131 4.131 0 0 0-.002.115H.56v8.133c0 .626.594 1.135 1.324 1.135h9.077c.73 0 1.324-.51 1.324-1.135v-8.129h-.005z" fill="#68EBC0" mask="url(#E)"/></g><path fill="#FFF" fill-rule="nonzero" d="M157.906 48.214h8.579v5.284h-8.579z"/><g transform="translate(161.38 136.048)"><mask id="G" fill="#fff"><use xlink:href="#F"/></mask><use fill="#FFDCB5" xlink:href="#F"/><path fill="#FF8907" mask="url(#G)" d="M-.372 16.081h13.266l-.19 6.732H-.372z"/></g><path d="M165.23 135.238c0 .752.61 1.362 1.362 1.362h2.207c.763 0 1.38-.618 1.38-1.381a1.37 1.37 0 0 0-1.38-1.37l-2.207.017a1.372 1.372 0 0 0-1.362 1.372z" fill="#FFA25D"/><text font-family="PingFangSC-Medium, PingFang SC" font-size="4" font-weight="400" fill="#FFF" transform="translate(160.844 133.415)"><tspan x="3" y="23">wine</tspan></text><g transform="translate(144.823 136.048)"><mask id="I" fill="#fff"><use xlink:href="#H"/></mask><use fill="#FFDCB5" xlink:href="#H"/><path fill="#FF8907" mask="url(#I)" d="M-.372 16.081h13.266l-.19 6.732H-.372z"/></g><path d="M148.673 135.238c0 .752.61 1.362 1.361 1.362h2.207c.763 0 1.381-.618 1.381-1.381a1.37 1.37 0 0 0-1.38-1.37l-2.208.017a1.372 1.372 0 0 0-1.361 1.372z" fill="#FFA25D"/><text font-family="PingFangSC-Medium, PingFang SC" font-size="4" font-weight="400" fill="#FFF" transform="translate(144.287 133.415)"><tspan x="3" y="23">wine</tspan></text><g transform="translate(128.745 136.048)"><mask id="K" fill="#fff"><use xlink:href="#J"/></mask><use fill="#FFDCB5" xlink:href="#J"/><path fill="#FF8907" mask="url(#K)" d="M-.372 16.081h13.266l-.19 6.732H-.372z"/></g><path d="M132.594 135.238c0 .752.61 1.362 1.362 1.362h2.207c.763 0 1.381-.618 1.381-1.381a1.37 1.37 0 0 0-1.38-1.37l-2.208.017a1.372 1.372 0 0 0-1.362 1.372z" fill="#FFA25D"/><text font-family="PingFangSC-Medium, PingFang SC" font-size="4" font-weight="400" fill="#FFF" transform="translate(128.209 133.415)"><tspan x="3" y="23">wine</tspan></text><g><g transform="translate(112.007 136.048)"><mask id="M" fill="#fff"><use xlink:href="#L"/></mask><use fill="#FFDCB5" xlink:href="#L"/><path fill="#FF8907" mask="url(#M)" d="M-.372 16.081h13.266l-.19 6.732H-.372z"/></g><path d="M115.856 135.238c0 .752.61 1.362 1.362 1.362h2.207c.763 0 1.38-.618 1.38-1.381a1.37 1.37 0 0 0-1.38-1.37l-2.207.017a1.372 1.372 0 0 0-1.362 1.372z" fill="#FFA25D"/><text font-family="PingFangSC-Medium, PingFang SC" font-size="4" font-weight="400" fill="#FFF" transform="translate(111.47 133.415)"><tspan x="3" y="23">wine</tspan></text></g><g><g transform="translate(95.689 136.048)"><mask id="O" fill="#fff"><use xlink:href="#N"/></mask><use fill="#FFDCB5" xlink:href="#N"/><path fill="#FF8907" mask="url(#O)" d="M-.372 16.081h13.266l-.19 6.732H-.372z"/></g><path d="M99.538 135.238c0 .752.61 1.362 1.362 1.362h2.207c.763 0 1.38-.618 1.38-1.381a1.37 1.37 0 0 0-1.38-1.37l-2.207.017a1.372 1.372 0 0 0-1.362 1.372z" fill="#FFA25D"/><text font-family="PingFangSC-Medium, PingFang SC" font-size="4" font-weight="400" fill="#FFF" transform="translate(95.153 133.415)"><tspan x="3" y="23">wine</tspan></text></g><g><g transform="translate(79.37 136.048)"><mask id="Q" fill="#fff"><use xlink:href="#P"/></mask><use fill="#FFDCB5" xlink:href="#P"/><path fill="#FF8907" mask="url(#Q)" d="M-.372 16.081h13.266l-.19 6.732H-.372z"/></g><path d="M83.22 135.238c0 .752.61 1.362 1.362 1.362h2.207c.763 0 1.381-.618 1.381-1.381a1.37 1.37 0 0 0-1.38-1.37l-2.208.017a1.372 1.372 0 0 0-1.361 1.372z" fill="#FFA25D"/><text font-family="PingFangSC-Medium, PingFang SC" font-size="4" font-weight="400" fill="#FFF" transform="translate(78.835 133.415)"><tspan x="3" y="23">wine</tspan></text></g><g><path fill="#ACCEF8" d="M77.96 93.117h16.546v16.498H77.96z"/><text font-family="PingFangSC-Medium, PingFang SC" font-size="5" font-weight="400" fill="#FFF" transform="translate(77.393 87.182)"><tspan x="4.498" y="12.4">Mil</tspan> <tspan x="4.498" y="19.4">k</tspan></text><path d="M80.309 89.756a.997.997 0 0 1-.28-.694v-.444a1 1 0 0 1 1-1h10.409a1 1 0 0 1 1 1v.444c0 .27-.107.514-.28.694h.28l2.068 3.36H77.96l2.069-3.36h.28z" fill="#CCE3FF"/><path fill="#6EA7EE" d="M83.475 87.618h6.128v1h-6.128z"/><path d="M78.573 104.921c1.317-.827 2.498-1.103 3.543-.827 1.569.414 4.628 1.358 6-1.673 1.371-3.031 4.049-.925 4.268-.925.219 0 1.51.418 1.51-1.971v9.632h-15.32v-4.236z" fill="#FFF"/></g><g><path fill="#ACCEF8" d="M98.418 93.117h16.546v16.498H98.418z"/><text font-family="PingFangSC-Medium, PingFang SC" font-size="5" font-weight="400" fill="#FFF" transform="translate(97.851 87.182)"><tspan x="4.498" y="12.75">Milk</tspan></text><path d="M100.767 89.756a.997.997 0 0 1-.28-.694v-.444a1 1 0 0 1 1-1h10.409a1 1 0 0 1 1 1v.444c0 .27-.107.514-.28.694h.28l2.068 3.36H98.418l2.069-3.36h.28z" fill="#CCE3FF"/><path fill="#6EA7EE" d="M103.933 87.618h6.128v1h-6.128z"/><path d="M99.031 104.921c1.317-.827 2.498-1.103 3.543-.827 1.569.414 4.628 1.358 6-1.673 1.371-3.031 4.049-.925 4.268-.925.219 0 1.51.418 1.51-1.971v9.632h-15.32v-4.236z" fill="#FFF"/></g><g><path fill="#ACCEF8" d="M118.217 93.117h16.546v16.498h-16.546z"/><text font-family="PingFangSC-Medium, PingFang SC" font-size="5" font-weight="400" fill="#FFF" transform="translate(117.65 87.182)"><tspan x="4.38" y="12.22">Milk</tspan></text><path d="M120.565 89.756a.997.997 0 0 1-.28-.694v-.444a1 1 0 0 1 1-1h10.409a1 1 0 0 1 1 1v.444c0 .27-.107.514-.28.694h.28l2.068 3.36h-16.545l2.068-3.36h.28z" fill="#CCE3FF"/><path fill="#6EA7EE" d="M123.732 87.618h6.128v1h-6.128z"/><path d="M118.83 104.642c1.316-.881 2.497-1.175 3.543-.881 1.568.44 4.627 1.447 5.999-1.784 1.371-3.23 4.05-.986 4.268-.986.219 0 1.51.445 1.51-2.1v10.266h-15.32v-4.515z" fill="#FFF"/></g><g><path fill="#ACCEF8" d="M139.335 93.117h16.546v16.498h-16.546z"/><text font-family="PingFangSC-Medium, PingFang SC" font-size="5" font-weight="400" fill="#FFF" transform="translate(138.768 87.182)"><tspan x="4.38" y="12.22">Milk</tspan></text><path d="M141.683 89.756a.997.997 0 0 1-.28-.694v-.444a1 1 0 0 1 1-1h10.409a1 1 0 0 1 1 1v.444c0 .27-.107.514-.28.694h.28l2.068 3.36h-16.545l2.068-3.36h.28z" fill="#CCE3FF"/><path fill="#6EA7EE" d="M144.85 87.618h6.128v1h-6.128z"/><path d="M139.947 104.642c1.317-.881 2.498-1.175 3.544-.881 1.568.44 4.627 1.447 5.999-1.784 1.372-3.23 4.05-.986 4.268-.986.219 0 1.51.445 1.51-2.1v10.266h-15.32v-4.515z" fill="#FFF"/></g><g><path fill="#ACCEF8" d="M159.133 93.117h16.546v16.498h-16.546z"/><text font-family="PingFangSC-Medium, PingFang SC" font-size="5" font-weight="400" fill="#FFF" transform="translate(158.566 87.182)"><tspan x="5.28" y="12.22">Milk</tspan></text><path d="M161.481 89.756a.997.997 0 0 1-.28-.694v-.444a1 1 0 0 1 1-1h10.41a1 1 0 0 1 1 1v.444c0 .27-.108.514-.281.694h.28l2.068 3.36h-16.545l2.068-3.36h.28z" fill="#CCE3FF"/><path fill="#6EA7EE" d="M164.648 87.618h6.128v1h-6.128z"/><path d="M159.746 104.921c1.316-.827 2.497-1.103 3.543-.827 1.568.414 4.627 1.358 5.999-1.673 1.372-3.031 4.05-.925 4.268-.925.219 0 1.51.418 1.51-1.971v9.632h-15.32v-4.236z" fill="#FFF"/></g><path d="M61.222 0h129.986c.861 1.86.753 3.434-.325 4.722-1.077 1.288-2.407 2.302-3.99 3.041H66.076c-1.863-.419-3.254-1.433-4.175-3.041-.92-1.608-1.147-3.182-.68-4.722z" fill="#61759E"/><path fill="#1C2B4F" d="M66.579 212.2h120.346l4.857 5.176H62.262z"/><rect fill="#61759E" x="49.676" y="215.974" width="153.766" height="5.176" rx="2.588"/></g><g transform="translate(186.092 285.126)"><mask id="S" fill="#fff"><use xlink:href="#R"/></mask><path d="M8.942 3.384c-.188-.071-.308-.231-.303-.405v-.547c.795 0 1.44-.545 1.44-1.216C10.079.544 9.434 0 8.639 0H1.92C1.126 0 .48.544.48 1.216c0 .671.646 1.216 1.44 1.216v.539c.006.174-.114.333-.302.405C.67 3.666.028 4.417 0 5.269v10.537c0 1.12 1.074 2.027 2.4 2.027h5.76c1.325 0 2.399-.908 2.399-2.027V5.27c-.032-.849-.673-1.595-1.617-1.885" fill="#FBE190" mask="url(#S)"/><path fill="#FFC510" fill-rule="nonzero" mask="url(#S)" d="M1.32 6.485h7.919v8.106H1.32z"/></g><g transform="translate(202.59 285.126)"><mask id="U" fill="#fff"><use xlink:href="#T"/></mask><path d="M8.942 3.384c-.188-.071-.308-.231-.303-.405v-.547c.795 0 1.44-.545 1.44-1.216C10.079.544 9.434 0 8.639 0H1.92C1.126 0 .48.544.48 1.216c0 .671.646 1.216 1.44 1.216v.539c.006.174-.114.333-.302.405C.67 3.666.028 4.417 0 5.269v10.537c0 1.12 1.074 2.027 2.4 2.027h5.76c1.325 0 2.399-.908 2.399-2.027V5.27c-.032-.849-.673-1.595-1.617-1.885" fill="#FBE190" mask="url(#U)"/><path fill="#FFC510" fill-rule="nonzero" mask="url(#U)" d="M1.32 6.485h7.919v8.106H1.32z"/></g><g transform="translate(219.089 285.126)"><mask id="W" fill="#fff"><use xlink:href="#V"/></mask><path d="M8.942 3.384c-.188-.071-.308-.231-.303-.405v-.547c.795 0 1.44-.545 1.44-1.216C10.079.544 9.434 0 8.639 0H1.92C1.126 0 .48.544.48 1.216c0 .671.646 1.216 1.44 1.216v.539c.006.174-.114.333-.302.405C.67 3.666.028 4.417 0 5.269v10.537c0 1.12 1.074 2.027 2.4 2.027h5.76c1.325 0 2.399-.908 2.399-2.027V5.27c-.032-.849-.673-1.595-1.617-1.885" fill="#FBE190" mask="url(#W)"/><path fill="#FFC510" fill-rule="nonzero" mask="url(#W)" d="M1.32 6.485h7.919v8.106H1.32z"/></g><g transform="translate(235.587 285.126)"><mask id="Y" fill="#fff"><use xlink:href="#X"/></mask><path d="M8.942 3.384c-.188-.071-.308-.231-.303-.405v-.547c.795 0 1.44-.545 1.44-1.216C10.079.544 9.434 0 8.639 0H1.92C1.126 0 .48.544.48 1.216c0 .671.646 1.216 1.44 1.216v.539c.006.174-.114.333-.302.405C.67 3.666.028 4.417 0 5.269v10.537c0 1.12 1.074 2.027 2.4 2.027h5.76c1.325 0 2.399-.908 2.399-2.027V5.27c-.032-.849-.673-1.595-1.617-1.885" fill="#FBE190" mask="url(#Y)"/><path fill="#FFC510" fill-rule="nonzero" mask="url(#Y)" d="M1.32 6.485h7.919v8.106H1.32z"/></g><g transform="translate(252.085 285.126)"><mask id="aa" fill="#fff"><use xlink:href="#Z"/></mask><path d="M8.942 3.384c-.188-.071-.308-.231-.303-.405v-.547c.795 0 1.44-.545 1.44-1.216C10.079.544 9.434 0 8.639 0H1.92C1.126 0 .48.544.48 1.216c0 .671.646 1.216 1.44 1.216v.539c.006.174-.114.333-.302.405C.67 3.666.028 4.417 0 5.269v10.537c0 1.12 1.074 2.027 2.4 2.027h5.76c1.325 0 2.399-.908 2.399-2.027V5.27c-.032-.849-.673-1.595-1.617-1.885" fill="#FBE190" mask="url(#aa)"/><path fill="#FFC510" fill-rule="nonzero" mask="url(#aa)" d="M1.32 6.485h7.919v8.106H1.32z"/></g><g transform="translate(268.584 285.126)"><mask id="ac" fill="#fff"><use xlink:href="#ab"/></mask><path d="M8.942 3.384c-.188-.071-.308-.231-.303-.405v-.547c.795 0 1.44-.545 1.44-1.216C10.079.544 9.434 0 8.639 0H1.92C1.126 0 .48.544.48 1.216c0 .671.646 1.216 1.44 1.216v.539c.006.174-.114.333-.302.405C.67 3.666.028 4.417 0 5.269v10.537c0 1.12 1.074 2.027 2.4 2.027h5.76c1.325 0 2.399-.908 2.399-2.027V5.27c-.032-.849-.673-1.595-1.617-1.885" fill="#FBE190" mask="url(#ac)"/><path fill="#FFC510" fill-rule="nonzero" mask="url(#ac)" d="M1.32 6.485h7.919v8.106H1.32z"/></g><path fill="#ACCEF8" d="M104.957 245.898h10.755v10.899h-10.755z"/><text font-family="PingFangSC-Medium, PingFang SC" font-size="3" font-weight="400" fill="#FFF" transform="translate(104.588 241.977)"><tspan x="3.003" y="8.041">Milk</tspan></text><path d="M106.574 243.677a.807.807 0 0 1 .534-1.413h6.451a.807.807 0 0 1 .534 1.413h.274l1.344 2.22h-10.755l1.345-2.22h.273z" fill="#CCE3FF"/><path fill="#6EA7EE" d="M108.54 242.265h3.984v1h-3.983z"/><path d="M105.355 253.696c.856-.546 1.623-.729 2.303-.546 1.02.273 3.008.896 3.9-1.106.89-2.002 2.631-.611 2.774-.611.142 0 .98.276.98-1.302v6.363h-9.957v-2.798z" fill="#FFF"/><g><path fill="#ACCEF8" d="M119.351 245.898h10.755v10.899h-10.755z"/><text font-family="PingFangSC-Medium, PingFang SC" font-size="3" font-weight="400" fill="#FFF" transform="translate(118.982 241.977)"><tspan x="3.003" y="8.041">Milk</tspan></text><path d="M120.968 243.677a.807.807 0 0 1 .534-1.413h6.451a.807.807 0 0 1 .535 1.413h.273l1.344 2.22h-10.754l1.344-2.22h.273z" fill="#CCE3FF"/><path fill="#6EA7EE" d="M122.935 242.265h3.983v1h-3.983z"/><path d="M119.749 253.696c.856-.546 1.623-.729 2.303-.546 1.02.273 3.008.896 3.9-1.106.891-2.002 2.631-.611 2.774-.611.142 0 .98.276.98-1.302v6.363h-9.957v-2.798z" fill="#FFF"/></g><g><path fill="#ACCEF8" d="M131.946 245.898H142.7v10.899h-10.755z"/><text font-family="PingFangSC-Medium, PingFang SC" font-size="3" font-weight="400" fill="#FFF" transform="translate(131.577 241.977)"><tspan x="3.432" y="8.041">Milk</tspan></text><path d="M133.563 243.677a.807.807 0 0 1 .534-1.413h6.451a.807.807 0 0 1 .534 1.413h.274l1.344 2.22h-10.755l1.345-2.22h.273z" fill="#CCE3FF"/><path fill="#6EA7EE" d="M135.53 242.265h3.983v1h-3.983z"/><path d="M132.344 253.512c.856-.583 1.623-.777 2.303-.583 1.02.291 3.008.956 3.9-1.178.89-2.134 2.631-.651 2.774-.651.142 0 .98.294.98-1.388v6.782h-9.957v-2.982z" fill="#FFF"/></g><g><path fill="#ACCEF8" d="M146.34 245.898h10.755v10.899H146.34z"/><text font-family="PingFangSC-Medium, PingFang SC" font-size="3" font-weight="400" fill="#FFF" transform="translate(145.971 241.977)"><tspan x="3.432" y="8.041">Milk</tspan></text><path d="M147.957 243.677a.807.807 0 0 1 .534-1.413h6.451a.807.807 0 0 1 .535 1.413h.273l1.344 2.22H146.34l1.344-2.22h.273z" fill="#CCE3FF"/><path fill="#6EA7EE" d="M149.924 242.265h3.983v1h-3.983z"/><path d="M146.738 253.512c.856-.583 1.623-.777 2.303-.583 1.02.291 3.008.956 3.9-1.178.891-2.134 2.631-.651 2.774-.651.142 0 .98.294.98-1.388v6.782h-9.957v-2.982z" fill="#FFF"/></g><g><path fill="#ACCEF8" d="M158.935 245.898h10.755v10.899h-10.755z"/><text font-family="PingFangSC-Medium, PingFang SC" font-size="3" font-weight="400" fill="#FFF" transform="translate(158.566 241.977)"><tspan x="3.432" y="8.041">Milk</tspan></text><path d="M160.552 243.677a.807.807 0 0 1 .534-1.413h6.451a.807.807 0 0 1 .534 1.413h.274l1.344 2.22h-10.755l1.345-2.22h.273z" fill="#CCE3FF"/><path fill="#6EA7EE" d="M162.519 242.265h3.983v1h-3.983z"/><path d="M159.333 253.696c.856-.546 1.623-.729 2.303-.546 1.02.273 3.007.896 3.9-1.106.89-2.002 2.631-.611 2.774-.611.142 0 .98.276.98-1.302v6.363h-9.957v-2.798z" fill="#FFF"/></g><g><g transform="translate(105.729 204.196)"><mask id="ae" fill="#fff"><use xlink:href="#ad"/></mask><path d="M8.931 10.088v-.15h-.003C8.857 8.29 7.593 6.908 5.882 6.456a.982.982 0 0 0 .129-.484c0-.456-.32-.848-.777-1.021V3.348h.507c.256 0 .464-.187.464-.417 0-.231-.208-.418-.464-.418H3.776a.505.505 0 0 0-.096.01c-.074.013-.736.143-1.15.334-.42.195-.904.642-.958.692a.39.39 0 0 0 .013.59.49.49 0 0 0 .321.117.488.488 0 0 0 .334-.128c.108-.101.472-.416.713-.528.238-.11.674-.211.873-.252h.482v1.563c-.519.146-.894.566-.894 1.06a.98.98 0 0 0 .118.464c-1.77.436-3.08 1.861-3.125 3.56v6.309c0 .479.432.868.963.868h6.602c.53 0 .963-.39.963-.868v-6.216H8.93z" fill="#68EBC0" mask="url(#ae)"/></g><path fill="#FFF" fill-rule="nonzero" d="M107.237 214.802h6.034v4.041h-6.034z"/><g transform="translate(118.267 204.196)"><mask id="ag" fill="#fff"><use xlink:href="#af"/></mask><path d="M9.49 10.088v-.15h-.004C9.41 8.29 8.067 6.908 6.25 6.456a.938.938 0 0 0 .136-.484c0-.456-.34-.848-.825-1.021V3.348h.54c.271 0 .491-.187.491-.417 0-.231-.22-.418-.492-.418H4.012a.57.57 0 0 0-.102.01c-.079.013-.782.143-1.222.334-.447.195-.96.642-1.017.692a.375.375 0 0 0 .013.59.54.54 0 0 0 .341.117c.13 0 .258-.043.355-.128.115-.101.501-.416.758-.528.252-.11.716-.211.927-.252h.512v1.563c-.55.146-.95.566-.95 1.06 0 .166.045.323.126.464-1.88.436-3.273 1.861-3.32 3.56v.002l-.002.088h.002v6.219c0 .479.459.868 1.023.868H8.47c.564 0 1.023-.39 1.023-.868v-6.216h-.004z" fill="#68EBC0" mask="url(#ag)"/></g><path fill="#FFF" fill-rule="nonzero" d="M119.797 214.802h6.63v4.041h-6.63z"/><g transform="translate(132.786 204.196)"><mask id="ai" fill="#fff"><use xlink:href="#ah"/></mask><path d="M9.49 10.088v-.15h-.004C9.41 8.29 8.067 6.908 6.25 6.456a.938.938 0 0 0 .136-.484c0-.456-.34-.848-.825-1.021V3.348h.54c.271 0 .491-.187.491-.417 0-.231-.22-.418-.492-.418H4.012a.57.57 0 0 0-.102.01c-.079.013-.782.143-1.222.334-.447.195-.96.642-1.017.692a.375.375 0 0 0 .013.59.54.54 0 0 0 .341.117c.13 0 .258-.043.355-.128.115-.101.501-.416.758-.528.252-.11.716-.211.927-.252h.512v1.563c-.55.146-.95.566-.95 1.06 0 .166.045.323.126.464-1.88.436-3.273 1.861-3.32 3.56v.002l-.002.088h.002v6.219c0 .479.459.868 1.023.868H8.47c.564 0 1.023-.39 1.023-.868v-6.216h-.004z" fill="#68EBC0" mask="url(#ai)"/></g><path fill="#FFF" fill-rule="nonzero" d="M134.316 214.802h6.63v4.041h-6.63z"/><g><g transform="translate(145.985 204.196)"><mask id="ak" fill="#fff"><use xlink:href="#aj"/></mask><path d="M9.49 10.088v-.15h-.004C9.41 8.29 8.067 6.908 6.25 6.456a.938.938 0 0 0 .136-.484c0-.456-.34-.848-.825-1.021V3.348h.54c.271 0 .491-.187.491-.417 0-.231-.22-.418-.492-.418H4.012a.57.57 0 0 0-.102.01c-.079.013-.782.143-1.222.334-.447.195-.96.642-1.017.692a.375.375 0 0 0 .013.59.54.54 0 0 0 .341.117c.13 0 .258-.043.355-.128.115-.101.501-.416.758-.528.252-.11.716-.211.927-.252h.512v1.563c-.55.146-.95.566-.95 1.06 0 .166.045.323.126.464-1.88.436-3.273 1.861-3.32 3.56v.002l-.002.088h.002v6.219c0 .479.459.868 1.023.868H8.47c.564 0 1.023-.39 1.023-.868v-6.216h-.004z" fill="#68EBC0" mask="url(#ak)"/></g><path fill="#FFF" fill-rule="nonzero" d="M147.515 214.802h6.629v4.041h-6.63z"/></g><g><g transform="translate(159.184 204.196)"><mask id="am" fill="#fff"><use xlink:href="#al"/></mask><path d="M9.49 10.088v-.15h-.004C9.41 8.29 8.067 6.908 6.25 6.456a.938.938 0 0 0 .136-.484c0-.456-.34-.848-.825-1.021V3.348h.54c.271 0 .491-.187.491-.417 0-.231-.22-.418-.492-.418H4.012a.57.57 0 0 0-.102.01c-.079.013-.782.143-1.222.334-.447.195-.96.642-1.017.692a.375.375 0 0 0 .013.59.54.54 0 0 0 .341.117c.13 0 .258-.043.355-.128.115-.101.501-.416.758-.528.252-.11.716-.211.927-.252h.512v1.563c-.55.146-.95.566-.95 1.06 0 .166.045.323.126.464-1.88.436-3.273 1.861-3.32 3.56v.002l-.002.088h.002v6.219c0 .479.459.868 1.023.868H8.47c.564 0 1.023-.39 1.023-.868v-6.216h-.004z" fill="#68EBC0" mask="url(#am)"/></g><path fill="#FFF" fill-rule="nonzero" d="M160.714 214.802h6.629v4.041h-6.63z"/></g><g><g transform="translate(115.37 271.529)"><mask id="ao" fill="#fff"><use xlink:href="#an"/></mask><use fill="#FFDCB5" xlink:href="#an"/><path fill="#FF8907" mask="url(#ao)" d="M-.279 11.886h9.95l-.143 4.976H-.279z"/></g><path d="M118.257 270.93c0 .556.45 1.007 1.007 1.007h1.685a1.02 1.02 0 0 0 1.02-1.02 1.013 1.013 0 0 0-1.02-1.014l-1.685.013a1.014 1.014 0 0 0-1.007 1.014z" fill="#FFA25D"/><text font-family="PingFangSC-Medium, PingFang SC" font-size="3" font-weight="400" fill="#FFF" transform="translate(114.968 269.583)"><tspan x="1.98" y="17.53">wine</tspan></text><g><g transform="translate(103.81 271.529)"><mask id="aq" fill="#fff"><use xlink:href="#ap"/></mask><use fill="#FFDCB5" xlink:href="#ap"/><path fill="#FF8907" mask="url(#aq)" d="M-.279 11.886h9.95l-.143 4.976H-.279z"/></g><path d="M106.698 270.93c0 .556.45 1.007 1.007 1.007h1.685a1.02 1.02 0 0 0 1.02-1.02 1.013 1.013 0 0 0-1.02-1.014l-1.685.013a1.014 1.014 0 0 0-1.007 1.014z" fill="#FFA25D"/><text font-family="PingFangSC-Medium, PingFang SC" font-size="3" font-weight="400" fill="#FFF" transform="translate(103.409 269.583)"><tspan x="1.98" y="17.53">wine</tspan></text></g><g><g transform="translate(138.37 271.246)"><mask id="as" fill="#fff"><use xlink:href="#ar"/></mask><use fill="#FFDCB5" xlink:href="#ar"/><path fill="#FF8907" mask="url(#as)" d="M-.279 11.886h9.95l-.143 4.976H-.279z"/></g><path d="M141.257 270.648c0 .556.45 1.006 1.007 1.006h1.685a1.02 1.02 0 0 0 1.02-1.02 1.013 1.013 0 0 0-1.02-1.013l-1.685.013a1.014 1.014 0 0 0-1.007 1.014z" fill="#FFA25D"/><text font-family="PingFangSC-Medium, PingFang SC" font-size="3" font-weight="400" fill="#FFF" transform="translate(137.968 269.3)"><tspan x="1.98" y="17.53">wine</tspan></text><g><g transform="translate(126.81 271.246)"><mask id="au" fill="#fff"><use xlink:href="#at"/></mask><use fill="#FFDCB5" xlink:href="#at"/><path fill="#FF8907" mask="url(#au)" d="M-.279 11.886h9.95l-.143 4.976H-.279z"/></g><path d="M129.698 270.648c0 .556.45 1.006 1.007 1.006h1.685a1.02 1.02 0 0 0 1.02-1.02 1.013 1.013 0 0 0-1.02-1.013l-1.685.013a1.014 1.014 0 0 0-1.007 1.014z" fill="#FFA25D"/><text font-family="PingFangSC-Medium, PingFang SC" font-size="3" font-weight="400" fill="#FFF" transform="translate(126.409 269.3)"><tspan x="1.98" y="17.53">wine</tspan></text></g></g><g><g transform="translate(161.37 271.246)"><mask id="aw" fill="#fff"><use xlink:href="#av"/></mask><use fill="#FFDCB5" xlink:href="#av"/><path fill="#FF8907" mask="url(#aw)" d="M-.279 11.886h9.95l-.143 4.976H-.279z"/></g><path d="M164.257 270.648c0 .556.45 1.006 1.007 1.006h1.685a1.02 1.02 0 0 0 1.02-1.02 1.013 1.013 0 0 0-1.02-1.013l-1.685.013a1.014 1.014 0 0 0-1.007 1.014z" fill="#FFA25D"/><text font-family="PingFangSC-Medium, PingFang SC" font-size="3" font-weight="400" fill="#FFF" transform="translate(160.968 269.3)"><tspan x="1.98" y="17.53">wine</tspan></text><g><g transform="translate(149.81 271.246)"><mask id="ay" fill="#fff"><use xlink:href="#ax"/></mask><use fill="#FFDCB5" xlink:href="#ax"/><path fill="#FF8907" mask="url(#ay)" d="M-.279 11.886h9.95l-.143 4.976H-.279z"/></g><path d="M152.698 270.648c0 .556.45 1.006 1.007 1.006h1.685a1.02 1.02 0 0 0 1.02-1.02 1.013 1.013 0 0 0-1.02-1.013l-1.685.013a1.014 1.014 0 0 0-1.007 1.014z" fill="#FFA25D"/><text font-family="PingFangSC-Medium, PingFang SC" font-size="3" font-weight="400" fill="#FFF" transform="translate(149.409 269.3)"><tspan x="1.98" y="17.53">wine</tspan></text></g></g></g><g><g transform="translate(105.175 169.191)"><mask id="aA" fill="#fff"><use xlink:href="#az"/></mask><path d="M7.824 2.883c-.165-.061-.269-.197-.265-.345V2.07c.696 0 1.26-.463 1.26-1.035C8.82.464 8.255 0 7.56 0H1.68C.985 0 .42.464.42 1.036c0 .572.565 1.035 1.26 1.035v.46c.005.148-.1.284-.264.345-.83.248-1.39.887-1.415 1.612v8.977c0 .953.94 1.726 2.1 1.726h5.04c1.16 0 2.1-.773 2.1-1.726V4.488c-.029-.723-.59-1.358-1.416-1.605" fill="#FBE190" mask="url(#aA)"/><path fill="#FFC510" fill-rule="nonzero" mask="url(#aA)" d="M1.155 5.524h6.929v6.905H1.155z"/></g><g transform="translate(119.034 169.191)"><mask id="aC" fill="#fff"><use xlink:href="#aB"/></mask><path d="M7.824 2.883c-.165-.061-.269-.197-.265-.345V2.07c.696 0 1.26-.463 1.26-1.035C8.82.464 8.255 0 7.56 0H1.68C.985 0 .42.464.42 1.036c0 .572.565 1.035 1.26 1.035v.46c.005.148-.1.284-.264.345-.83.248-1.39.887-1.415 1.612v8.977c0 .953.94 1.726 2.1 1.726h5.04c1.16 0 2.1-.773 2.1-1.726V4.488c-.029-.723-.59-1.358-1.416-1.605" fill="#FBE190" mask="url(#aC)"/><path fill="#FFC510" fill-rule="nonzero" mask="url(#aC)" d="M1.155 5.524h6.929v6.905H1.155z"/></g><g transform="translate(132.893 169.191)"><mask id="aE" fill="#fff"><use xlink:href="#aD"/></mask><path d="M7.824 2.883c-.165-.061-.269-.197-.265-.345V2.07c.696 0 1.26-.463 1.26-1.035C8.82.464 8.255 0 7.56 0H1.68C.985 0 .42.464.42 1.036c0 .572.565 1.035 1.26 1.035v.46c.005.148-.1.284-.264.345-.83.248-1.39.887-1.415 1.612v8.977c0 .953.94 1.726 2.1 1.726h5.04c1.16 0 2.1-.773 2.1-1.726V4.488c-.029-.723-.59-1.358-1.416-1.605" fill="#FBE190" mask="url(#aE)"/><path fill="#FFC510" fill-rule="nonzero" mask="url(#aE)" d="M1.155 5.524h6.929v6.905H1.155z"/></g><g transform="translate(147.411 169.191)"><mask id="aG" fill="#fff"><use xlink:href="#aF"/></mask><path d="M7.824 2.883c-.165-.061-.269-.197-.265-.345V2.07c.696 0 1.26-.463 1.26-1.035C8.82.464 8.255 0 7.56 0H1.68C.985 0 .42.464.42 1.036c0 .572.565 1.035 1.26 1.035v.46c.005.148-.1.284-.264.345-.83.248-1.39.887-1.415 1.612v8.977c0 .953.94 1.726 2.1 1.726h5.04c1.16 0 2.1-.773 2.1-1.726V4.488c-.029-.723-.59-1.358-1.416-1.605" fill="#FBE190" mask="url(#aG)"/><path fill="#FFC510" fill-rule="nonzero" mask="url(#aG)" d="M1.155 5.524h6.929v6.905H1.155z"/></g><g transform="translate(161.27 169.191)"><mask id="aI" fill="#fff"><use xlink:href="#aH"/></mask><path d="M7.824 2.883c-.165-.061-.269-.197-.265-.345V2.07c.696 0 1.26-.463 1.26-1.035C8.82.464 8.255 0 7.56 0H1.68C.985 0 .42.464.42 1.036c0 .572.565 1.035 1.26 1.035v.46c.005.148-.1.284-.264.345-.83.248-1.39.887-1.415 1.612v8.977c0 .953.94 1.726 2.1 1.726h5.04c1.16 0 2.1-.773 2.1-1.726V4.488c-.029-.723-.59-1.358-1.416-1.605" fill="#FBE190" mask="url(#aI)"/><path fill="#FFC510" fill-rule="nonzero" mask="url(#aI)" d="M1.155 5.524h6.929v6.905H1.155z"/></g></g></g><ellipse fill="#61759E" cx="60" cy="319.312" rx="60" ry="2.312"/><ellipse fill="#61759E" cx="354.391" cy="331.633" rx="92.391" ry="3.633"/><g fill-rule="nonzero"><path d="M52.558 187.88c-.283 1.102-.751 1.792-1.404 2.068-.652.277-.652 2.673 0 7.188l4.86 1.603v3.402h-6.019c-.827-1.42-1.24-4.44-1.24-9.062 0-6.933 3.867-8.771 6-8.771 1.423 0 .69 1.19-2.197 3.572z" fill="#4D3644"/><path d="M50.535 189.835c-.476 1.973-.932 5.34.543 8.364 1.474 3.024 2.691 1.75 3.644 1.358.634-.262 2.165-1.07 4.592-2.422-.488-1.698-.733-3.52-.733-5.468 0-2.92-3.6-4.717-5.17-4.717-1.57 0-2.4.912-2.876 2.885z" fill="#FFC5B2"/><path d="M55.18 199.212c.04 1.163-.083 1.947-.37 2.352a10.47 10.47 0 0 1-1.032 1.223c-.69 1.883-.495 2.895.587 3.037 1.622.213 3.493.358 4.228.233.735-.125 2.04-.7 2.04-1.668 0-.644-.12-1.386-.361-2.225v-6.628l-1.68.096-3.03 2.4-.382 1.18z" fill="#FFC7B5"/><path d="M51.796 187.648c-.428-.557-.514-1.355-.258-2.394.322-.884 1.23-1.395 2.727-1.535 2.245-.21 3.527.057 4.478.597.952.54 4.174 2.421 5.016 6.615.842 4.194 1.354 7.722 0 8.877-.902.77-2.989 1.327-6.26 1.672.83-2.964 1.244-5.084 1.244-6.361 0-1.277-.3-2.625-.898-4.045-.66-.08-1.685-.433-3.076-1.06-2.086-.94-2.332-1.53-2.973-2.366z" fill="#4D3644"/><path d="M54.418 202.14c-.216 1.619.056 2.588.815 2.91 1.14.483 2.657.227 3.344-.355.458-.388 1.083-1.162 1.875-2.321l1.404.257.757.609-2.161 7.313c-1.715 2.89-3.53 4.245-5.447 4.067-2.873-.267-3.09.958-3.483-1.554-.393-2.513.245-5.59.245-6.98 0-.928.213-1.876.64-2.846l2.011-1.1z" fill="#FFF"/><path d="M30.428 202.29c.987.937 1.617 1.603 1.889 1.999.408.593.702 2.104.555 2.489-.098.257 1.275 4.37 4.12 12.342l1.127-1.767 2.716 6.86-2.432 2.92c-.826.75-1.683.95-2.57.597-1.33-.528-1.99-2.372-1.99-2.727 0-.236-1.139-5.95-3.415-17.14-1.484-1.095-2.413-1.849-2.789-2.264-.563-.623-2.379-4.011-1.904-4.663.475-.652 1.468 1.64 1.904 1.99.437.348 1.846 1.607 2.317 1.607.472 0-.27-1.86-.189-2.242.054-.255.274-.255.66 0z" fill="#FFC6B3"/><path d="M54.03 202.14c-.787 1.692-1.303 3.36-1.546 5.002-.366 2.464-.609 5.752.653 6.41 1.262.657 2.465-.32 3.207-1.085.742-.765 1.767-2.634 2.476-4.32.708-1.687 1.853-4.88 1.853-5.597 0-.478.974-.216 2.923.786 2.125.763 4.103 2.45 5.934 5.06 2.746 3.916 3.61 6.372 4.236 9.232.417 1.906.88 5.022 1.386 9.348l-6.36-.97-2.421-8.63-.51-1.567v8.879l-.692 11.797H45.082l.223-6.855-1.338-9.143-3.728 4.727-2.703-6.55c1.584-3.039 2.686-5.006 3.304-5.902.926-1.344 4.242-5.952 7.61-8.084 2.244-1.421 4.104-2.267 5.58-2.537z" fill="#6DBDFF"/><path d="M62.613 203.127c-2.353 7.708-4.833 11.563-7.44 11.563-2.606 0-3.977-.495-4.114-1.484-.679-4.602-.292-8.07 1.16-10.405" stroke="#2467FF" stroke-width=".5" stroke-linecap="round"/><path fill="url(#aJ)" d="M16.498 29.06h15.448l3.69 18.93-15.517.224z" transform="translate(24.997 183.648)"/><path d="M68.608 225.735l.285.597-11.473-2.81-4.428-3.275c-3.046-.747-4.868-1.046-5.467-.897-.6.15.47.553 3.21 1.21l-5.113-.313c-.503.225.131.492 1.903.802 1.771.31 1.371.464-1.2.464-.3.04-.3.162 0 .366.301.204 1.17.204 2.606 0-1.297.407-1.946.648-1.946.723 0 .111.57.38 1.516 0 .63-.254 1.455.324 2.475 1.731 1.189.935 2.342 1.402 3.46 1.402 1.12 0 1.908.199 2.366.597l11.806 5.339c1.435.567 2.516.851 3.242.851 1.09 0 1.907-.427 2.661-1.462.503-.69.71-1.705.621-3.044v-1.684l-6.524-.597z" fill="#FFC6B3"/><path d="M52.714 187.21c-.75 2.3-1.532 3.505-2.345 3.618-.813.113-1.106.113-.88 0l2.206-4.539 1.02.921z" fill="#4D3644"/><path d="M45.374 235.825l-13.118 75.54 7.458 1.074 11.642-44.299 3.829-19.05.937 31.89 1.782 31.46 8.196-1.075 1.793-54.262v-11.851c-1.01-6.285-1.902-9.427-2.676-9.427H45.374z" fill="#B6D0E6"/><path fill="#FFC6B3" d="M33.906 311.118l-1.822 2.772-2.468 1.248 7.337 2.585 1.243-5.993z"/><path d="M31.25 314.33c.528.91 1.215 1.364 2.06 1.364s2.254-.645 4.226-1.934l-.447 4.623H24.997c.358-.947 1.132-1.717 2.322-2.311 1.19-.594 2.5-1.175 3.931-1.743z" fill="#7473BF"/><path d="M59.314 312.343v2.183l3.944 1.876 3.975-.925c-1.002-.466-1.795-.928-2.377-1.387-.582-.459-1.11-1.23-1.583-2.311l-3.96.564z" fill="#FFC6B3"/><path d="M59.314 313.76v4.623h11.219c-.762-1.762-1.715-2.698-2.86-2.808-1.146-.11-1.934-.394-2.364-.852-.55.568-1.415.852-2.597.852s-2.315-.605-3.398-1.815z" fill="#7473BF"/></g><g><path d="M407.787 242.865h4.23c.968.407 1.312 1.278 1.033 2.61-.278 1.333-.623 5.827-1.033 13.481-.465 1.975-1.158 2.962-2.08 2.962-.92 0-1.308.144-1.164.43 1.258.606 1.646 1.349 1.165 2.23-.482.88-2.869 6.104-7.16 15.67h-2.462l7.471-15.67-1.928-2.23h-19.013l4.678-5.892 16.263-13.591z" fill="#5F6BD1"/><path d="M406.12 261.873h-30.522l-10.605 20.918 34.88-.382 8.254-16.843c.255-1.259.255-2.123 0-2.593-.256-.47-.924-.836-2.007-1.1z" fill="#FFF"/><path d="M405.135 241.573H380.63l-5.131 18.018h31.455c1.98 0 3.07-.787 3.27-2.36.2-1.574.66-6.063 1.376-13.468 0-1.46-.459-2.19-1.376-2.19h-5.09z" fill="#DEDEDE"/><path d="M405.135 240.308H380.63l-5.131 18.018h31.455c1.98 0 3.07-.787 3.27-2.36.2-1.574.66-6.063 1.376-13.468 0-1.46-.459-2.19-1.376-2.19h-5.09z" fill="#FFF"/><path fill="#D8D8D8" d="M365.926 306.71h7.259l-2.697 15.85h-2.263z"/><g fill="#100E5D"><path d="M365.98 318.598h6.77v3.743h-6.77zM367.02 322.875h4.688v6.95h-4.687z"/><path d="M335.113 326.947l14.992-4.743 15.822-.724H388.8l19.32 7.53h-5.084l-15.054-5.085-36.833.531-14.592 4.554h-4.928z"/></g><g><path d="M378.518 233.88l2.08 5.386c-3.783 2.946-6.008 3.765-6.672 2.458-.665-1.306-.891-2.513-.678-3.62l5.27-4.224z" fill="#FFC5B2"/><path d="M370.998 239.704c-4.999.473-7.802 1.972-8.41 4.497-.608 2.525-1.284 8.096-2.027 16.712-1.015 6.453-3.67 9.679-7.963 9.679-4.295 0-4.7 1.887-1.218 5.66 8.62-2.515 12.93-4.402 12.93-5.66 0-1.887-1.803 12.788-3.749 12.788h8.568c-3.043-13.634-3.492-23.886-1.347-30.755 2.144-6.87 3.216-11.177 3.216-12.921z" fill="#6DBDFF"/><path d="M371.116 240.025c-3.246 4.42-4.868 8.298-4.868 11.634v24.22l-1.318 7.69 15.583 1.183v-17.028l3.28-27.328-12.677-.371z" fill="#FFF"/><path d="M371.486 240.018s-2.195 4.45-3.32 13.775c-1.123 9.326-1.34 16.831-1.986 15.273-1.029-2.484-2.692-21.154-1.363-23.359 1.33-2.205 2.447-.015 3.35-1.24.193-.261-.129-.926-.965-1.993 2.175-2.679 3.603-3.497 4.284-2.456z" fill="#6D99FB"/><path d="M373.15 238.208c.77.782 1.863 1.173 3.28 1.173 2.124 0 3.598-1.564 3.15-2.544-.236-.514-.724-1.35 1.323-.227.192.105.473.426.842.964v2.665c0 1.579-4.174 1.795-6.603 1.795-2.43 0-4.028-.738-4.028-3.374 0-1.758.68-1.909 2.037-.452z" fill="#B6D1F7"/><path d="M365.539 224.543c-.435 4.03-.35 6.946.254 8.747.908 2.703 1.65 3.844 3.25 4.85 1.6 1.006 2.7.86 3.273.86s2.69-.202 5.336-3.27c1.764-2.047 2.712-3.214 2.845-3.5.36-.724.45-1.54.27-2.45-.27-1.363-.17-2.828-.91-2.096-.493.489-1.633-1.35-3.419-5.515h-7.395l-3.504 2.374z" fill="#FFC5B2"/><path d="M365.911 221.484c0 1.612-1.017.543-1.017 1.54s-.649.952 0 2.599c.433 1.097.675 1.988.725 2.672.177-1.284.368-2.1.573-2.445.309-.52 1.883-.746 2.608-.227.725.518 2.229.115 2.923-.375.695-.49 3.079-1.108 4.443.863 1.365 1.971.412 1.76.995 1.76.582 0 .962.476.772 1.102-.19.625.192 3.193.693 2.112.5-1.08.855-2.365 1.39-2.79.537-.424 1.691 2.701.98 4.09-.71 1.388 2.473-2.209 2.473-5.181 0-2.973-2.111-6.1-2.782-6.399-.67-.298 1.706-.271 2.107-.284.237-.008-1.804-2.688-4.86-3.954-2.124-.88-5.295-.577-6.21-.304-2.236.664-2.236.664-1.688-.465.467-.966-2.675 1.262-3.844 3.14-.752 1.208-.28 1.97-.28 2.546z" fill="#4D3644"/><path d="M68.207 59.535l5.673-3.123c-.08-4.299.194-7.607.822-9.924.63-2.318 2.001-9.731 4.116-22.24l7.565 1.274c2.946.023 5.079 2.758 6.4 8.202 1.32 5.445 2.572 11.704 3.755 18.776.69 2.455-1.253 4.467-5.83 6.035-4.576 1.568-7.332 2.314-8.268 2.239l3.943 6.07-10.724 1.5-.957-4.598-4.108 1.029-2.387-5.24zM85.8 42.817c-2.07 5.447-3.104 8.43-3.104 8.95 0 .52 1.035.06 3.104-1.383.447-1.03.67-2.026.67-2.988 0-.962-.223-2.488-.67-4.579z" fill="url(#aK)" transform="translate(303.232 215.565)"/><path d="M402.19 280.238c-6.145 17.638-17.092 26.457-32.842 26.457-15.749 0-24.936-7.93-27.562-23.79h5.35c4.269 8.62 9.428 12.794 15.478 12.523 6.05-.271 9.044-4.445 8.984-12.523l30.591-2.667z" fill="#100E5D"/><path d="M381.701 239.386c1.675-.123 3.024.605 4.047 2.185 1.535 2.37 1.966 1.938-.88 1.938-1.896 0-1.603.643.88 1.93l-8.36 21.261c.375-6.342.873-11.345 1.493-15.009.621-3.664 1.561-7.765 2.82-12.305z" fill="#6D99FB"/><path d="M372.274 275.803c-.47-.48-1.02-1.21-1.648-2.19-.466-.726-1.987-1.831-3.948-1.39-2.006.453-4.09 3.083-4.558 3.58-.682.722-.682 1.791 0 1.556.454-.156.312.257-.428 1.24-.142.177-.142.346 0 .506.277.31.708.31.708.57 0 .267.389.191 1.166-.228.187.543.45.619.791.227.511-.588.583-.87.792 0 .21.87.782.622 1.171 0 .39-.621.664-1.568 1.928-.569 1.264 1 2.313 1.936 3.467 1.139.769-.531 1.285-.911 1.548-1.139l-.99-3.302zM315.61 321.493v6.842c3.274.68 4.98.68 5.12 0 .14-.682.473-2.722.999-6.122l-6.12-.72zM330.441 321.763v7.093h5.247l.897-6.681z" fill="#FFC6B3"/><path d="M335.715 294.602c-1.717.286-2.888 1.219-3.513 2.797-.955 2.41-4.956 20.175-6.141 23.907-.79 2.488-4.737 2.626-11.839.415 3.745-16.35 6.361-26.612 7.848-30.789 1.487-4.176 4.864-6.713 10.132-7.61h13.027a14.82 14.82 0 0 1 2.81-.374h24.18c.497 2.89.26 5.497-.712 7.823-1.458 3.488-2.23 4.075-5.527 4.743-3.298.668-13.22-.423-15.808-.423-1.725 0-2.59.403-2.593 1.21-3.544 14.677-5.523 23.133-5.936 25.37-.62 3.354-4.034 2.156-4.594 2.156-.559 0-5.05-1.276-6.138-1.74-.726-.309-1.42-.591-2.083-.847 2.772-11.78 5.068-20.66 6.887-26.638z" fill="#B6D0E6"/><path d="M322.044 328.18c1.087-1.086 3.709-1.746 7.867-1.98 1.001.923 2.828.99 5.48.204 2.556-.759 3.517 2.099 2.334 4.902-.042.1-.51.226-1.402.381-9.67.698-14.619.04-14.844-1.973a2.084 2.084 0 0 1-.004-.04c-.554 1.091-1.353 2.062-2.002 2.062h-7.225c-6.457.311-9.302-.228-8.536-1.618.767-1.39 4.688-2.56 11.763-3.514 2.054.744 3.92.8 5.6.165 1.032-.39 1.219.374.969 1.411z" fill="#565C87"/></g><g transform="translate(325.01 257.835)"><rect fill="#DCDADA" x="27.753" y="22.604" width="20.422" height="2.628" rx="1.314"/><path d="M23.511.22H2.924C1.425-.258.934.721 1.449 3.153c.515 2.432 1.826 9.383 3.932 20.851.118.998 1.278 1.497 3.48 1.497h21.018c1.044.511 1.305-.688.783-3.597-.783-4.365-1.176-8.986-3.008-17.827-.322-1.553-.322-2.514-1.302-3.118-.653-.402-1.6-.65-2.84-.74z" fill="#FFF"/><path d="M22.464.22H1.877C.378-.258-.113.721.4 3.153c.516 2.432 1.826 9.383 3.933 20.851.118.998 1.278 1.497 3.479 1.497h21.019c1.044.511 1.305-.688.783-3.597-.783-4.365-1.177-8.986-3.009-17.827-.321-1.553-.665-2.407-1.3-2.96-.422-.37-1.37-.67-2.842-.899z" fill="#A1CAFF"/></g></g><g transform="translate(383 102)" fill-rule="nonzero"><path d="M7.5.013C2.5-.177 0 1.788 0 5.909V14h13.675L15 1.183 7.5.013z" fill="url(#aL)"/><path d="M6 0c3.656.734 5.648 3.134 5.977 7.201.328 4.067.328 13.202 0 27.405.019 4.93 2.747 7.394 8.184 7.394H38V5.826C37.864 1.942 35.886 0 32.065 0H6z" fill="url(#aM)"/><rect fill="#FFF" x="18" y="8" width="15" height="1.5" rx=".75"/><rect fill="#FFF" x="18" y="13" width="15" height="1.5" rx=".75"/><rect fill="#FFF" x="18" y="18" width="15" height="1.5" rx=".75"/><rect fill="#FFF" x="18" y="23" width="12.632" height="1.5" rx=".75"/><rect fill="#FFF" x="18" y="28" width="8.684" height="1.5" rx=".75"/><path d="M21 42c3.62-.508 5.77-1.708 6.449-3.6.679-1.89.957-5.358.835-10.4l1.844 1.257L31.926 28l1.91 1.257L35.816 28l2.031 1.257L39.533 28l1.643 1.257L43.253 28l2.069 1.257L47.456 28 49 29.257v8.154C49 40.471 47.774 42 45.322 42H21z" fill="url(#aN)"/></g><g fill-rule="nonzero"><path fill="#51A4FF" d="M201.89 2.203l-10.753 33.694-18.77-11.277z"/><path fill="url(#aO)" transform="rotate(-34 146.31 -144.251)" d="M69.314 8.265l3.948 8.632 32.156-7.46-31.092 9.77 4.13 9.316L110.513 8.25z"/><path d="M172.493 37.153c-12.12 12.923-20.935 20.215-26.444 21.875-8.264 2.492-12.134-1.162-12.88-6.48-.748-5.317 4.615-10.363 10.595-9.779 5.98.585 12.543 6.458 13.515 13.375.972 6.918-12.493 46.66-45.502 45.856" stroke="#51A4FF" stroke-width="1.5" stroke-linecap="round" stroke-dasharray="1,4"/></g><g transform="translate(83 259)" fill-rule="nonzero"><path d="M3.559 46.771l17.297.613-2.823 13.737c-1.782.881-3.72 1.321-5.814 1.321s-4.192-.44-6.294-1.32L3.56 46.771z" fill="#6E86B9"/><ellipse fill="#1C2B4F" cx="12.219" cy="48.725" rx="9.899" ry="3.15"/><ellipse fill="#6E86B9" cx="12.219" cy="47.825" rx="9.899" ry="3.15"/><ellipse fill="#2B3C63" cx="12.219" cy="47.825" rx="5.939" ry="1.8"/><path d="M10.156 33.893c-1.795-1.769-2.693-3.426-2.693-4.97 0-2.316 4.28-4.212 4.28-5.19 0-.978-.017-4.05-2.181-6.326-2.164-2.275-3.978-9.974-.997-14.294 1.988-2.88 4.711-3.213 8.17-1 2.186 2.755 2.784 5.658 1.794 8.71-1.485 4.575-4.36 5.537-3.429 7.546.932 2.009 4.078 9.043.703 10.554-2.25 1.008-2.97 2.665-2.163 4.97h-3.484z" fill="url(#aP)"/><path d="M5.383 23.234c-2.632-.772-6.123.374-5.245 3.372.879 2.998 2.77 1.182 6.414 3.756 2.429 1.716 3.739 3.897 3.928 6.542l1.661-4.082c-.083-2.687-.515-4.578-1.294-5.673-1.169-1.641-2.832-3.143-5.464-3.915z" fill="url(#aQ)"/><path d="M15.524 22.918C17.131 18.973 19.112 17 21.466 17c3.532 0 4.073 1.654 4.073 3.04 0 1.384-2.178 1.051-5.516 5.216s-5.282 8.256-5.282 8.256L13 32.702l2.524-9.784z" fill="url(#aR)"/><path d="M7.153 35.025c-2.93-2.03-4.57-.544-5.196 1.1-.626 1.644-.485 3.575 2.641 5.609a129.633 129.633 0 0 0 6.961 4.197l-.588-4.707c-.592-2.78-1.865-4.846-3.818-6.199z" fill="url(#aS)"/><path d="M18.935 33.796c2.542-1.047 5.674-1.493 5.935 1.446.261 2.939-5.557 3.022-8.068 6.713-1.673 2.46-2.94 4.32-3.802 5.575l.41-5.575 1.637-4.279c.897-1.889 2.193-3.182 3.888-3.88z" fill="url(#aT)"/><path d="M13.918 48.224c-.036-2.513.228-4.273.792-5.28.845-1.51 3.533-4.845 3.439-7.58-.095-2.736-2.666-5.2-5.411-4.093C9.992 32.378 9 35.247 9 38.1c0 1.9 1.075 5.276 3.225 10.125h1.693z" fill="url(#aU)"/></g></g><path fill="url(#aV)" d="M422 180h107.213v5.963H422zM422 233h107.213v5.963H422zM422 287h107.213v5.963H422z"/><g transform="translate(34 107)"><ellipse fill="#3BAF29" fill-rule="nonzero" cx="8.49" cy="8.897" rx="8.49" ry="8.491"/><g transform="translate(4.528 5.21)"><mask id="aX" fill="#fff"><use xlink:href="#aW"/></mask><path d="M7.474 7.86H.423C.189 7.86 0 7.657 0 7.407c0-.248.19-.45.423-.45h7.05c.234 0 .424.202.424.45 0 .25-.19.451-.423.451zM6.339 2.346L5.172 1.059l.91-.933a.404.404 0 0 1 .596.011l.584.644a.467.467 0 0 1-.012.633l-.91.933zm-3.371 3.49L1.8 4.548l3.068-3.18 1.167 1.288-3.067 3.18zm-1.9.702l.427-1.68 1.168 1.288-1.596.392z" fill="#FFF" mask="url(#aX)"/></g></g><g transform="translate(34 140)"><ellipse fill="#3BAF29" fill-rule="nonzero" cx="8.49" cy="8.491" rx="8.49" ry="8.491"/><g transform="translate(5.094 4.004)"><mask id="aZ" fill="#fff"><use xlink:href="#aY"/></mask><path d="M1.817 1.588a.39.39 0 0 1-.388-.395V.395A.39.39 0 0 1 1.817 0a.39.39 0 0 1 .388.395v.798a.39.39 0 0 1-.388.395zm1.947 0a.39.39 0 0 1-.388-.395V.395A.39.39 0 0 1 3.764 0a.39.39 0 0 1 .388.395v.798a.386.386 0 0 1-.388.395zm1.954 0a.39.39 0 0 1-.388-.395V.395A.39.39 0 0 1 5.718 0a.39.39 0 0 1 .388.395v.798a.39.39 0 0 1-.388.395zm.388 3.185H1.422a.39.39 0 0 0-.388.395c0 .22.173.395.388.395h4.684a.39.39 0 0 0 .388-.395.39.39 0 0 0-.388-.395zm0-1.728H1.422a.39.39 0 0 0-.388.395c0 .22.173.396.388.396h4.684a.39.39 0 0 0 .388-.396.39.39 0 0 0-.388-.395zM1.034 6.83c0 .184.144.33.324.33h2.47c.18 0 .324-.146.324-.33a.325.325 0 0 0-.323-.329H1.358c-.18-.007-.324.146-.324.33zm5.46.14a.766.766 0 0 0-.518-.205.792.792 0 0 0-.783.797c0 .22.087.418.23.564l.36.366H.387A.39.39 0 0 1 0 8.096V1.193A.39.39 0 0 1 .388.798h.646v.395c0 .44.352.798.783.798.431 0 .783-.359.783-.798V.798h.388v.395c0 .44.352.798.783.798a.792.792 0 0 0 .783-.798V.798h.388v.395c0 .44.352.798.783.798a.792.792 0 0 0 .783-.798V.798h.654a.39.39 0 0 1 .387.395V6.23a.77.77 0 0 0-.553.234l-.502.505zm1.321.336L6.774 8.367a.376.376 0 0 1-.546 0L5.71 7.84a.39.39 0 0 1-.115-.279.39.39 0 0 1 .387-.395c.108 0 .209.044.273.117l.245.25.761-.777a.376.376 0 0 1 .273-.117.39.39 0 0 1 .388.395.353.353 0 0 1-.108.271z" fill="#FFF" mask="url(#aZ)"/></g></g><g transform="translate(34 172)"><ellipse fill="#3BAF29" fill-rule="nonzero" cx="8.49" cy="8.652" rx="8.49" ry="8.491"/><g transform="translate(3.962 3.962)"><mask id="bb" fill="#fff"><use xlink:href="#ba"/></mask><path d="M5.582 7.423a.33.33 0 0 1 .325.325.33.33 0 0 1-.325.326H3.467a.33.33 0 0 1-.326-.326.33.33 0 0 1 .326-.325h2.115zm1.457-4.96a.325.325 0 1 1-.46-.46l.687-.687a.324.324 0 1 1 .46.46l-.687.686zM8.73 4.188a.33.33 0 0 1 .326.325.33.33 0 0 1-.326.326h-.969a.33.33 0 0 1-.325-.326.33.33 0 0 1 .325-.325h.97zm-7.435.007a.33.33 0 0 1 .325.326.33.33 0 0 1-.325.325h-.97A.316.316 0 0 1 0 4.522a.33.33 0 0 1 .325-.326h.97zm.714-1.734l-.686-.686a.328.328 0 0 1 .014-.446.328.328 0 0 1 .446-.014l.686.686a.328.328 0 0 1-.014.446.327.327 0 0 1-.446.014zm2.512-.849a.333.333 0 0 1-.234-.099.315.315 0 0 1-.092-.233V.31a.325.325 0 1 1 .65-.007l.001.977a.33.33 0 0 1-.325.332zm.488 6.793a.33.33 0 0 1 .325.326.33.33 0 0 1-.325.325h-.97a.33.33 0 0 1-.325-.325.33.33 0 0 1 .326-.326h.969zM1.93 4.5c0-.927.496-1.783 1.295-2.25.8-.467 1.79-.467 2.59 0A2.609 2.609 0 0 1 7.11 4.5c0 .927-.495 1.783-1.295 2.25-.799.467-1.79.467-2.589 0A2.6 2.6 0 0 1 1.931 4.5z" fill="#FFF" mask="url(#bb)"/></g></g></g></svg>