<?xml version="1.0" standalone="no"?><!DOCTYPE svg PUBLIC "-//W3C//DTD SVG 1.1//EN" "http://www.w3.org/Graphics/SVG/1.1/DTD/svg11.dtd"><svg t="1560755731984" class="icon" style="" viewBox="0 0 1024 1024" version="1.1" xmlns="http://www.w3.org/2000/svg" p-id="13416" xmlns:xlink="http://www.w3.org/1999/xlink" width="200" height="200"><defs><style type="text/css"></style></defs><path d="M781.47647 897.153491c0 7.871616-0.188542 18.665628-0.549914 32.41346h90.767116v80.271628h-15.837503v-66.272407h-76.029439c-2.466754 26.50582-12.710853 48.910859-30.748009 67.199403a111.145331 111.145331 0 0 0-11.611026-13.072224c11.29679-11.909551 18.838458-23.881948 22.656427-35.901482 3.802258-10.809724 5.703386-28.108425 5.703387-51.927526v-76.406522h15.648961v49.900702h66.64949v-53.215894h15.648961v53.215894h49.350789v13.794968h-131.64924zM846.334814 730.089835H264.997913c-16.151739 0-31.423616-15.523266-31.423616-31.423616v-31.423616L97.69858 234.932202a28.658338 28.658338 0 0 1 17.471531-36.891325L644.35952 12.782947a29.381081 29.381081 0 0 1 37.472663 17.20443L752.063965 227.311975h94.270849c16.136027 0 31.423616 15.523266 31.423616 31.423616v439.930628c0 15.90035-15.271877 31.423616-31.423616 31.423616zM636.896411 76.745718L155.015256 243.023783l78.559041 267.100738V258.735591c0-15.90035 15.271877-31.423616 31.423616-31.423616h424.218819l-52.320321-150.566257zM830.623005 274.4474H280.709721v408.507011h549.913284V274.4474z m-479.210147 55.195581a48.957994 48.957994 0 0 1 47.135424 0c14.580558 8.060158 23.567712 22.954952 23.567712 39.075267s-8.987154 31.015109-23.567712 39.075267a48.957994 48.957994 0 0 1-47.135424 0C336.816588 399.733357 327.845146 384.838563 327.845146 368.718248s8.971442-31.015109 23.567712-39.075267zM532.098651 541.548138l141.406273-172.82989 109.982657 204.253506v47.135424H327.845146v-51.409036L437.827802 478.700905l94.270849 62.847233zM211.797731 888.511996H174.057968v-11.233943c4.289324-6.206164 8.531512-13.072224 12.695141-20.629604H167.427585v-11.045401h24.950351c2.875261-5.891928 5.73481-12.145228 8.562935-18.77561l12.695141 4.226476c-2.325348 4.917796-4.713542 9.772745-7.180296 14.549134h49.712161v11.045401H200.75233c-3.802258 7.133161-7.73021 14.062068-11.783856 20.818146h22.829257v-13.637849h12.899394v13.637849h29.63247v11.045401H224.697125v13.716409c10.244099-0.612761 19.938285-1.256945 29.082557-1.932553-0.487066 4.289324-0.864149 8.280123-1.099826 11.956686-9.144272 0.439931-18.477086 0.926997-27.982731 1.47691v14.737676h-12.899394v-13.999221c-14.297745 0.926997-29.01971 1.963976-44.181605 3.12665l-1.47691-12.522311c16.198874-0.612761 31.423616-1.319792 45.658515-2.105382v-14.454864z m108.27007 121.892208h-13.260766v-8.107293H207.571254v8.107293h-13.260766v-78.071975h125.757313v78.071975z m-13.260766-66.665202H207.571254v18.052867h99.235781v-18.052867z m0 28.909727H207.571254v18.225697h99.235781v-18.225697z m0.549913-45.658515v-38.666759H277.724478c-2.278212 16.748787-8.295835 30.685161-18.052868 41.793409a223.107675 223.107675 0 0 0-10.306946-9.207119c11.045401-11.406773 16.575958-27.621359 16.575958-48.612335v-29.45964a473.286796 473.286796 0 0 0 73.452703-6.441841l4.242188 12.160939a1065.386285 1065.386285 0 0 1-64.99975 5.342015v23.37917h67.937858v11.045402h-26.317279v38.666759h-12.899394z m118.954099-11.422484h-68.864855v-14.360593h72.180047c2.576737-12.757988 4.100782-26.992886 4.587848-42.704694h-62.784386v-14.376305h149.513566v14.376305h-71.253049c-0.864149 15.711808-2.451042 29.946706-4.792102 42.704694h90.044372v14.360593h-93.171022c-9.332814 41.494885-34.990197 73.656956-76.956436 96.486213a118.749846 118.749846 0 0 0-9.945574-13.072224c36.577089-18.288545 60.380479-46.098445 71.441591-83.413989z m40.3165 61.684559c0 9.694186 4.477865 14.549134 13.433596 14.549134h25.233164c8.34297 0 13.072224-3.629428 14.17205-10.85686 0.989844-7.007466 1.728299-16.088892 2.215365-27.259987 4.666407 1.728299 9.81988 3.503733 15.46042 5.342015a507.805638 507.805638 0 0 1-3.315192 27.432817c-1.586893 12.270922-10.306946 18.414239-26.144449 18.414239h-31.847835c-16.088892 0-24.117625-8.468665-24.117625-25.405994v-50.639157h14.910506v48.423793z m248.560804 32.58629h-13.810679v-8.830037h-134.77589v8.830037h-13.81068V836.58447h162.397249v173.254109z m-13.810679-159.993343h-134.77589v137.90254h134.77589v-137.90254z m-100.429878 37.739764a243.061672 243.061672 0 0 1-19.058423 16.387415 323.239028 323.239028 0 0 0-9.018578-9.018577 163.559923 163.559923 0 0 0 41.416326-42.908948l12.16094 5.719098a139.662262 139.662262 0 0 1-7.368838 9.929862h65.188292v10.872572c-9.03429 10.919707-20.535333 20.77101-34.534554 29.553911 12.94653 4.352171 28.815456 7.761633 47.606778 10.212675a104.169288 104.169288 0 0 0-6.08047 13.810679c-21.792278-4.964931-40.206517-10.589759-55.242717-16.843058-15.0362 6.756077-34.974485 13.339325-59.830565 19.796878a78.684735 78.684735 0 0 0-6.269012-11.783856c21.540889-4.43073 39.342368-9.489932 53.404436-15.193318a105.331962 105.331962 0 0 1-22.373615-20.535333z m65.07831-8.468665h-56.798187a5.860504 5.860504 0 0 1-0.549913 0.644184 84.969458 84.969458 0 0 0 26.977174 22.562157c12.695141-6.818925 22.829257-14.549134 30.370926-23.206341z m-56.892458 50.262074c18.052868 2.702431 37.01702 5.766234 56.892458 9.20712l-3.865105 12.899394a960.761355 960.761355 0 0 0-56.703916-9.772744l3.676563-12.33377z m69.414769 38.305388l-4.964932 13.98351a1098.821013 1098.821013 0 0 0-87.467636-15.46042l3.880817-12.710852c30.685161 4.053646 60.207649 8.782901 88.551751 14.187762z" fill="#d81e06" p-id="13417"></path></svg>